<svg width="176" height="252" viewBox="0 0 176 252" fill="none" xmlns="http://www.w3.org/2000/svg">
<path d="M49.5714 226.8C53.2378 226.8 56.6514 226.044 59.18 224.91C68.1564 220.248 74.4779 213.822 80.7993 194.922C87.2472 175.266 99.3843 166.068 111.016 157.122C121.004 149.436 131.371 141.498 140.347 125.244C147.048 113.148 150.714 99.918 150.714 88.2C150.714 54.1808 124.853 27.191 91.2654 25.3053C88.7654 25.1649 86.2548 25.5871 83.7514 25.5405C67.2733 25.2339 63.2469 0 87.5 7.81928e-10C137.186 2.2762e-09 176 38.682 176 88.2C176 104.076 171.196 121.59 162.472 137.34C150.967 158.13 137.439 168.588 126.44 177.03C116.199 184.842 108.866 190.512 104.821 202.86C97.235 225.792 87.5 238.644 70.3057 247.59C63.8579 250.488 56.7778 252 49.5714 252C25.7279 252 5.75128 235.576 0.405273 213.454C-1.1662 206.951 4.26713 201.368 10.9505 201.074V201.074C18.0629 200.761 23.8437 206.766 27.2729 213.005C31.6927 221.046 40.1134 226.8 49.5714 226.8Z" fill="#FB4444"/>
</svg>
